<svg viewBox="0 0 522 522" fill="none" xmlns="http://www.w3.org/2000/svg">
<path d="M261.522 65.772L359.397 91.9975L431.046 163.647L457.272 261.522L431.046 359.397L359.397 431.046L261.522 457.272L163.647 431.046L91.9975 359.397L65.772 261.522L91.9975 163.647L163.647 91.9975L261.522 65.772Z" fill="url(#paint0_linear)"/>
<path fill-rule="evenodd" clip-rule="evenodd" d="M34.6956 12.3281L65.25 4.14111L95.8044 12.3281L118.172 34.6956L126.359 65.25L118.172 95.8044L95.8044 118.172L65.25 126.359L34.6956 118.172L12.3281 95.8044L4.14111 65.25L12.3281 34.6956L34.6956 12.3281ZM65.25 0L97.875 8.74184L121.758 32.625L130.5 65.25L121.758 97.875L97.875 121.758L65.25 130.5L32.625 121.758L8.74184 97.875L0 65.25L8.74184 32.625L32.625 8.74184L65.25 0ZM65.25 199.371L34.7068 207.621L12.3334 230.173L4.13891 261L12.3333 291.827L34.7068 314.379L65.25 322.629L95.7932 314.379L118.167 291.827L126.361 261L118.167 230.173L95.7932 207.621L65.25 199.371ZM97.875 204.04L65.25 195.228L32.625 204.04L8.74184 228.114L0 261L8.74184 293.886L32.625 317.96L65.25 326.772L97.875 317.96L121.758 293.886L130.5 261L121.758 228.114L97.875 204.04ZM261 199.369L230.185 207.626L207.626 230.185L199.369 261L207.626 291.815L230.185 314.374L261 322.631L291.815 314.374L314.374 291.815L322.631 261L314.374 230.185L291.815 207.626L261 199.369ZM293.886 204.04L261 195.228L228.114 204.04L204.04 228.114L195.228 261L204.04 293.886L228.114 317.96L261 326.772L293.886 317.96L317.96 293.886L326.772 261L317.96 228.114L293.886 204.04ZM230.173 403.833L261 395.639L291.827 403.833L314.379 426.207L322.629 456.75L314.379 487.293L291.827 509.667L261 517.861L230.173 509.667L207.621 487.293L199.371 456.75L207.621 426.207L230.173 403.833ZM261 391.5L293.886 400.242L317.96 424.125L326.772 456.75L317.96 489.375L293.886 513.258L261 522L228.114 513.258L204.04 489.375L195.228 456.75L204.04 424.125L228.114 400.242L261 391.5ZM456.75 395.641L426.196 403.828L403.828 426.196L395.641 456.75L403.828 487.304L426.196 509.672L456.75 517.859L487.304 509.672L509.672 487.304L517.859 456.75L509.672 426.196L487.304 403.828L456.75 395.641ZM489.375 400.242L456.75 391.5L424.125 400.242L400.242 424.125L391.5 456.75L400.242 489.375L424.125 513.258L456.75 522L489.375 513.258L513.258 489.375L522 456.75L513.258 424.125L489.375 400.242ZM426.207 207.621L456.75 199.371L487.293 207.621L509.667 230.173L517.861 261L509.667 291.827L487.293 314.379L456.75 322.629L426.207 314.379L403.833 291.827L395.639 261L403.833 230.173L426.207 207.621ZM456.75 195.228L489.375 204.04L513.258 228.114L522 261L513.258 293.886L489.375 317.96L456.75 326.772L424.125 317.96L400.242 293.886L391.5 261L400.242 228.114L424.125 204.04L456.75 195.228ZM65.25 395.641L34.6956 403.828L12.3281 426.196L4.14111 456.75L12.3281 487.304L34.6956 509.672L65.25 517.859L95.8044 509.672L118.172 487.304L126.359 456.75L118.172 426.196L95.8044 403.828L65.25 395.641ZM97.875 400.242L65.25 391.5L32.625 400.242L8.74184 424.125L0 456.75L8.74184 489.375L32.625 513.258L65.25 522L97.875 513.258L121.758 489.375L130.5 456.75L121.758 424.125L97.875 400.242ZM261 4.13891L230.173 12.3334L207.621 34.7068L199.371 65.25L207.621 95.7932L230.173 118.167L261 126.361L291.827 118.167L314.379 95.7932L322.629 65.25L314.379 34.7068L291.827 12.3333L261 4.13891ZM293.886 8.74184L261 0L228.114 8.74184L204.04 32.625L195.228 65.25L204.04 97.875L228.114 121.758L261 130.5L293.886 121.758L317.96 97.875L326.772 65.25L317.96 32.625L293.886 8.74184ZM426.196 12.3281L456.75 4.14111L487.304 12.3281L509.672 34.6956L517.859 65.25L509.672 95.8044L487.304 118.172L456.75 126.359L426.196 118.172L403.828 95.8044L395.641 65.25L403.828 34.6956L426.196 12.3281ZM456.75 0L489.375 8.74184L513.258 32.625L522 65.25L513.258 97.875L489.375 121.758L456.75 130.5L424.125 121.758L400.242 97.875L391.5 65.25L400.242 32.625L424.125 8.74184L456.75 0Z" fill="#5F5AFF"/>
<defs>
<linearGradient id="paint0_linear" x1="65.772" y1="261.522" x2="430.38" y2="360.542" gradientUnits="userSpaceOnUse">
<stop stop-color="#5F5AFF"/>
<stop offset="1" stop-color="#CCC9FF"/>
</linearGradient>
</defs>
</svg>
