<svg viewBox="0 0 746 448" fill="none" xmlns="http://www.w3.org/2000/svg">
<path d="M74.5 299L111.75 308.981L139.019 336.25L149 373.5L139.019 410.75L111.75 438.019L74.5 448L37.25 438.019L9.98108 410.75L-1.739e-05 373.5L9.9811 336.25L37.25 308.981L74.5 299Z" fill="url(#paint0_linear)"/>
<path d="M38.2853 161.774L74.5 152.071L110.715 161.774L137.226 188.285L146.929 224.5L137.226 260.715L110.715 287.226L74.5 296.929L38.2852 287.226L11.7742 260.715L2.07054 224.5L11.7743 188.285L38.2853 161.774Z" stroke="#5F5AFF" stroke-width="4"/>
<rect width="149" height="298" transform="translate(149 150)" fill="white"/>
<path d="M298 224.5L298 373.5L288.019 410.75L260.75 438.019L223.5 448L186.25 438.019L158.981 410.75L149 373.5L149 224.5L158.981 187.25L186.25 159.981L223.5 150L260.75 159.981L288.019 187.25L298 224.5Z" fill="#CCC9FF"/>
<path d="M410 30.0908L522 5.12438e-05L634 30.0908L715.99 112.3L746 224.601L298 224.601L328.01 112.3L410 30.0908Z" fill="url(#paint1_linear)"/>
<path d="M617.324 279.481L617.184 280L617.324 280.519L632.23 336L617.463 390.963L577.117 431.201L522 445.93L466.884 431.201L426.538 390.963L411.771 336L426.677 280.519L426.817 280L426.677 279.481L411.771 224L426.677 168.519L426.816 168L426.677 167.481L411.771 112L426.538 57.0372L466.884 16.7992L522 2.07019L577.117 16.7992L617.463 57.0372L632.23 112L617.324 167.481L617.184 168L617.324 168.519L632.23 224L617.324 279.481Z" stroke="#5F5AFF" stroke-width="4"/>
<defs>
<linearGradient id="paint0_linear" x1="-1.52709e-05" y1="373.5" x2="138.765" y2="411.186" gradientUnits="userSpaceOnUse">
<stop stop-color="#5F5AFF"/>
<stop offset="1" stop-color="#CCC9FF"/>
</linearGradient>
<linearGradient id="paint1_linear" x1="522" y1="224.601" x2="552.024" y2="4.08789" gradientUnits="userSpaceOnUse">
<stop stop-color="#5F5AFF"/>
<stop offset="1" stop-color="#CCC9FF"/>
</linearGradient>
</defs>
</svg>
