<svg viewBox="0 0 224 46" fill="currentColor" xmlns="http://www.w3.org/2000/svg">
<path d="M17.6096 0C27.3844 0 31.7122 4.95854 31.7122 14.189C31.7122 21.0547 28.8767 26.1658 22.1612 26.1658C18.3558 26.1658 15.6695 24.5638 12.6849 20.5207L7.5363 13.655C6.41705 12.2056 4.32778 12.1293 2.91006 13.655C1.71619 15.0282 1.94004 17.0116 3.05929 18.3847L8.58094 24.7164C10.4464 26.8524 11.1925 28.6069 11.1925 30.8192C11.1925 34.0232 9.25249 35.3963 5.82012 35.3963C2.83544 35.3963 0 34.3283 0 28.6069V8.92536C0 3.81426 2.76082 0 8.50632 0H17.6096ZM8.13324 11.5191L23.6536 19.529C28.1306 21.8938 30.6675 18.9187 28.3544 15.5622L21.5643 5.6451C19.9227 3.28026 19.1765 3.05141 16.7142 4.1194L8.43171 7.55223C7.23784 8.08623 6.56629 8.54394 6.56629 9.45936C6.56629 10.2222 7.01399 10.9088 8.13324 11.5191Z"/>
<path d="M45.4416 34.5573C43.0539 34.5573 40.9646 34.1759 39.1738 33.413C37.383 32.6502 35.9653 31.5059 34.846 30.1328C33.8014 28.7596 33.1299 27.1576 32.906 25.3268H39.8454C40.0692 26.3948 40.6662 27.3102 41.5616 28.0731C42.5316 28.8359 43.7255 29.2173 45.2178 29.2173C46.7101 29.2173 47.8294 28.9122 48.5009 28.3019C49.1725 27.6916 49.5456 26.9288 49.5456 26.1659C49.5456 25.0216 49.0233 24.1825 48.0532 23.8011C47.0832 23.3434 45.6655 22.9619 43.8747 22.5805C42.7554 22.3517 41.5616 22.0465 40.3677 21.6651C39.1738 21.2837 38.1292 20.826 37.0846 20.292C36.1145 19.758 35.2937 18.9951 34.6968 18.0797C34.0999 17.1643 33.8014 16.0963 33.8014 14.7231C33.8014 12.282 34.7714 10.2986 36.6369 8.62033C38.5023 6.94205 41.1885 6.1792 44.5462 6.1792C47.6802 6.1792 50.2171 6.94205 52.0826 8.46776C53.948 9.99346 55.0672 12.0532 55.4403 14.6469H48.9486C48.5756 12.6634 47.0832 11.5954 44.4716 11.5954C43.2031 11.5954 42.1585 11.8243 41.4869 12.3583C40.8154 12.8923 40.4423 13.5026 40.4423 14.2654C40.4423 15.1046 40.9646 15.7148 42.0093 16.1726C43.0539 16.6303 44.397 17.088 46.1132 17.4694C47.9786 17.9271 49.6948 18.3848 51.2618 18.9188C52.8287 19.4528 54.0972 20.2157 54.9926 21.2837C55.888 22.3517 56.4103 23.8011 56.4103 25.7845C56.4103 27.4628 56.0372 28.9885 55.1418 30.3616C54.2464 31.7347 52.9779 32.8027 51.2618 33.5656C49.7694 34.1759 47.7548 34.5573 45.4416 34.5573Z"/>
<path d="M60.8128 45.9999L67.006 32.0397H65.3644L54.9927 6.63672H62.4544L69.916 25.7843L77.6762 6.63672H84.9887L68.1252 45.9999H60.8128Z"/>
<path d="M86.3318 33.8707V6.63688H92.3758L92.8981 11.214C93.7189 9.61201 94.9127 8.31516 96.4797 7.39974C98.0466 6.48431 99.8374 5.95032 102.001 5.95032C105.284 5.95032 107.821 7.01831 109.687 9.15429C111.478 11.2903 112.448 14.418 112.448 18.4611V33.8707H105.583V19.1477C105.583 16.7828 105.135 15.0283 104.165 13.7314C103.27 12.5108 101.777 11.9006 99.8374 11.9006C97.8974 11.9006 96.3304 12.5871 95.062 13.9603C93.7935 15.3334 93.1965 17.3168 93.1965 19.7579V33.7944H86.3318V33.8707Z"/>
<path d="M124.461 34.5573C122.148 34.5573 120.282 34.1758 118.79 33.413C117.298 32.6501 116.253 31.6584 115.507 30.4379C114.761 29.2173 114.462 27.8442 114.462 26.3185C114.462 23.8011 115.432 21.7413 117.372 20.1394C119.312 18.5374 122.222 17.7745 126.102 17.7745H132.893V17.088C132.893 15.2571 132.37 13.884 131.326 12.9686C130.281 12.0531 129.012 11.6717 127.446 11.6717C126.028 11.6717 124.834 11.9768 123.789 12.6634C122.745 13.35 122.073 14.3417 121.849 15.6385H115.134C115.283 13.6551 115.954 11.9768 117.074 10.4511C118.193 8.92544 119.685 7.85745 121.476 7.0946C123.267 6.33174 125.282 5.95032 127.52 5.95032C131.326 5.95032 134.31 6.94202 136.474 8.84915C138.638 10.7563 139.757 13.5025 139.757 17.088V33.8707H133.937L133.266 29.4462C132.445 30.8956 131.4 32.1161 129.982 33.1078C128.49 34.0996 126.625 34.5573 124.461 34.5573ZM126.028 29.0647C127.968 29.0647 129.535 28.3782 130.654 27.0813C131.773 25.7845 132.445 24.1062 132.743 22.1991H126.923C125.132 22.1991 123.789 22.5042 122.968 23.1908C122.148 23.8773 121.775 24.7165 121.775 25.7082C121.775 26.7762 122.148 27.6153 122.968 28.1493C123.64 28.7596 124.685 29.0647 126.028 29.0647Z"/>
<path d="M142.518 46V6.63688H148.637L149.383 10.5274C150.278 9.30687 151.397 8.23887 152.815 7.32345C154.233 6.40803 156.098 5.95032 158.337 5.95032C160.874 5.95032 163.112 6.5606 165.052 7.78116C166.992 9.00172 168.559 10.7563 169.753 12.8923C170.872 15.0283 171.469 17.4694 171.469 20.2156C171.469 22.9619 170.872 25.403 169.753 27.539C168.634 29.675 167.067 31.3533 165.052 32.5738C163.038 33.7944 160.874 34.4047 158.337 34.4047C156.322 34.4047 154.606 34.0233 153.039 33.2604C151.547 32.4976 150.353 31.4296 149.383 30.0564V45.8475H142.518V46ZM156.845 28.3782C159.008 28.3782 160.874 27.6153 162.292 26.0896C163.709 24.5639 164.455 22.6568 164.455 20.2919C164.455 17.9271 163.709 15.9437 162.292 14.418C160.874 12.8923 159.083 12.1294 156.845 12.1294C154.606 12.1294 152.815 12.8923 151.397 14.418C149.98 15.9437 149.308 17.8508 149.308 20.2919C149.308 22.6568 149.98 24.6402 151.397 26.1659C152.815 27.6153 154.606 28.3782 156.845 28.3782Z"/>
<path d="M184.527 34.5573C182.14 34.5573 180.05 34.1759 178.26 33.413C176.469 32.6502 175.051 31.5059 173.932 30.1328C172.887 28.7596 172.216 27.1576 171.992 25.3268H178.931C179.155 26.3948 179.752 27.3102 180.647 28.0731C181.617 28.8359 182.811 29.2173 184.303 29.2173C185.796 29.2173 186.915 28.9122 187.587 28.3019C188.258 27.6916 188.631 26.9288 188.631 26.1659C188.631 25.0216 188.109 24.1825 187.139 23.8011C186.169 23.3434 184.751 22.9619 182.96 22.5805C181.841 22.3517 180.647 22.0465 179.453 21.6651C178.26 21.2837 177.215 20.826 176.17 20.292C175.2 19.758 174.379 18.9951 173.783 18.0797C173.186 17.1643 172.887 16.0963 172.887 14.7231C172.887 12.282 173.857 10.2986 175.723 8.62033C177.588 6.94205 180.274 6.1792 183.632 6.1792C186.766 6.1792 189.303 6.94205 191.168 8.46776C193.034 9.99346 194.153 12.0532 194.526 14.6469H188.034C187.661 12.6634 186.169 11.5954 183.557 11.5954C182.289 11.5954 181.244 11.8243 180.573 12.3583C179.901 12.8923 179.528 13.5026 179.528 14.2654C179.528 15.1046 180.05 15.7148 181.095 16.1726C182.14 16.6303 183.483 17.088 185.199 17.4694C187.064 17.9271 188.781 18.3848 190.347 18.9188C191.914 19.4528 193.183 20.2157 194.078 21.2837C194.974 22.3517 195.496 23.8011 195.496 25.7845C195.496 27.4628 195.123 28.9885 194.228 30.3616C193.332 31.7347 192.064 32.8027 190.347 33.5656C188.781 34.1759 186.766 34.5573 184.527 34.5573Z"/>
<path d="M210.643 34.5577C207.957 34.5577 205.569 33.9474 203.48 32.8031C201.391 31.6589 199.749 29.9806 198.555 27.8446C197.362 25.7086 196.765 23.2675 196.765 20.5212C196.765 17.6987 197.362 15.1813 198.481 12.969C199.675 10.7567 201.242 9.07845 203.331 7.85788C205.42 6.63732 207.808 6.02704 210.643 6.02704C213.255 6.02704 215.568 6.63732 217.583 7.7816C219.597 8.92588 221.164 10.5279 222.284 12.5876C223.403 14.6473 224 16.8595 224 19.3769C224 19.7584 224 20.2161 224 20.6738C224 21.1315 223.925 21.5892 223.925 22.0469H203.704C203.853 24.1829 204.599 25.8612 205.868 27.0817C207.211 28.3023 208.778 28.9126 210.643 28.9126C212.061 28.9126 213.18 28.6075 214.15 27.9209C215.12 27.3106 215.792 26.4715 216.24 25.4035H223.254C222.731 27.158 221.911 28.6837 220.791 30.1332C219.597 31.5063 218.18 32.6506 216.463 33.4897C214.673 34.1763 212.733 34.5577 210.643 34.5577ZM210.643 11.6721C208.927 11.6721 207.509 12.1299 206.166 13.1216C204.898 14.1133 204.077 15.5627 203.704 17.5461H216.986C216.911 15.7153 216.24 14.3421 215.046 13.2741C213.852 12.2061 212.434 11.6721 210.643 11.6721Z"/>
</svg>
