<svg xmlns="http://www.w3.org/2000/svg" viewBox="0 0 500.004 100.381">
  <path d="M110.228,77.239c21.826,0,31.494,10.764,31.494,30.995,0,14.951-6.279,26.213-21.329,26.213-8.571,0-14.45-3.489-21.128-12.26L87.8,107.138c-2.492-3.189-7.176-3.389-10.265,0-2.691,2.99-2.192,7.376.4,10.266L90.2,131.158c4.087,4.684,5.781,8.47,5.781,13.354,0,6.977-4.286,9.967-11.96,9.967-6.877,0-13.155-2.292-13.155-14.851V96.673c0-11.162,6.08-19.434,19.035-19.434ZM89,102.355l34.583,17.54c10.066,5.083,15.648-1.3,10.465-8.67L118.9,89.5c-3.588-5.083-5.381-5.582-10.764-3.388L89.7,93.684c-2.592,1.1-4.187,2.092-4.187,4.185C85.511,99.564,86.508,101.059,89,102.355Zm83.353,50.321A34.991,34.991,0,0,1,158.44,150.1a24.011,24.011,0,0,1-9.593-7.136,20.628,20.628,0,0,1-4.317-10.553H160a9.944,9.944,0,0,0,3.9,5.935,13.032,13.032,0,0,0,8.214,2.46q5.035,0,7.375-2.04a6.07,6.07,0,0,0,2.339-4.677,5.152,5.152,0,0,0-3.357-5.216,59.289,59.289,0,0,0-9.355-2.7q-3.84-.837-7.8-2.039a35.718,35.718,0,0,1-7.256-3.058,15.824,15.824,0,0,1-5.337-4.8,12.411,12.411,0,0,1-2.038-7.255,16.865,16.865,0,0,1,6.3-13.312q6.3-5.4,17.689-5.4,10.552,0,16.85,4.917a19.93,19.93,0,0,1,7.5,13.551H180.506q-1.32-6.593-9.953-6.6a11.3,11.3,0,0,0-6.656,1.679,5.01,5.01,0,0,0-2.339,4.2q0,2.64,3.477,4.2a50.81,50.81,0,0,0,9.234,2.879q6.234,1.44,11.453,3.178a19.252,19.252,0,0,1,8.335,5.157q3.119,3.418,3.118,9.774A16.7,16.7,0,0,1,194.3,143.2a19.885,19.885,0,0,1-8.636,6.956,32.388,32.388,0,0,1-13.312,2.52Zm34.3,24.944,13.791-30.341h-3.6L193.7,91.753h16.669l16.669,41.855,17.39-41.855h16.31l-37.78,85.867Zm56.963-26.383V91.753h13.553l1.2,10.074a20.929,20.929,0,0,1,7.975-8.395,23.518,23.518,0,0,1,12.292-3.118q11.031,0,17.149,6.955t6.116,20.388v33.58h-15.35V119.1q0-7.674-3.118-11.753t-9.714-4.077a13.7,13.7,0,0,0-10.614,4.556q-4.137,4.56-4.136,12.713v30.7Zm85.027,1.439q-7.675,0-12.593-2.459a16.988,16.988,0,0,1-7.315-6.536,17.393,17.393,0,0,1-2.4-8.993,16.37,16.37,0,0,1,6.477-13.433q6.476-5.155,19.428-5.156h15.11v-1.44q0-6.117-3.478-9a13.1,13.1,0,0,0-8.634-2.877A14.841,14.841,0,0,0,347.082,105a9.55,9.55,0,0,0-4.317,6.536h-14.99a20.923,20.923,0,0,1,4.377-11.272,24.528,24.528,0,0,1,9.774-7.377,33.69,33.69,0,0,1,13.433-2.578q12.709,0,20.026,6.357t7.317,17.988v36.578H369.626l-1.44-9.594a22.172,22.172,0,0,1-7.375,7.915q-4.738,3.121-12.172,3.123Zm3.478-11.993q6.6,0,10.254-4.317a20.977,20.977,0,0,0,4.616-10.674H353.916q-6.117,0-8.754,2.219a6.862,6.862,0,0,0-2.639,5.457,6.28,6.28,0,0,0,2.639,5.4,11.544,11.544,0,0,0,6.955,1.915Zm36.818,36.937V91.753h13.672l1.68,8.516a27.294,27.294,0,0,1,7.614-6.957q4.736-3,12.292-3a27.944,27.944,0,0,1,14.991,4.078,29.227,29.227,0,0,1,10.435,11.153,33.177,33.177,0,0,1,3.837,16.07,32.825,32.825,0,0,1-3.837,16.01,28.882,28.882,0,0,1-10.435,11.033,28.243,28.243,0,0,1-14.991,4.018,25.939,25.939,0,0,1-11.752-2.519,21.158,21.158,0,0,1-8.154-7.076V177.62Zm32.021-38.376a16.2,16.2,0,0,0,12.112-4.918q4.8-4.914,4.8-12.711a17.855,17.855,0,0,0-4.8-12.833,17.229,17.229,0,0,0-24.285-.06,17.77,17.77,0,0,0-4.737,12.772,17.76,17.76,0,0,0,4.737,12.772,16.052,16.052,0,0,0,12.169,4.978Zm61.761,13.432a34.983,34.983,0,0,1-13.912-2.578,24,24,0,0,1-9.594-7.136,20.649,20.649,0,0,1-4.317-10.553h15.47a9.944,9.944,0,0,0,3.9,5.935,13.032,13.032,0,0,0,8.214,2.46q5.035,0,7.375-2.04a6.07,6.07,0,0,0,2.339-4.677,5.152,5.152,0,0,0-3.357-5.216,59.289,59.289,0,0,0-9.355-2.7q-3.84-.837-7.794-2.039a35.726,35.726,0,0,1-7.257-3.058,15.811,15.811,0,0,1-5.336-4.8,12.412,12.412,0,0,1-2.039-7.255,16.866,16.866,0,0,1,6.3-13.312q6.3-5.4,17.69-5.4,10.552,0,16.85,4.917a19.93,19.93,0,0,1,7.5,13.551H490.871q-1.32-6.593-9.953-6.6a11.3,11.3,0,0,0-6.656,1.679,5.01,5.01,0,0,0-2.339,4.2q0,2.64,3.477,4.2a50.844,50.844,0,0,0,9.235,2.879q6.234,1.44,11.453,3.178a19.255,19.255,0,0,1,8.334,5.157q3.118,3.418,3.118,9.774a16.709,16.709,0,0,1-2.877,9.953,19.885,19.885,0,0,1-8.636,6.956,32.4,32.4,0,0,1-13.31,2.525Zm58.283,0a32.469,32.469,0,0,1-15.951-3.839,27.777,27.777,0,0,1-10.913-10.792,31.93,31.93,0,0,1-3.957-16.071,33.941,33.941,0,0,1,3.9-16.429,28.3,28.3,0,0,1,10.793-11.213,31.718,31.718,0,0,1,16.249-4.018A30.648,30.648,0,0,1,556.6,94.151a27.586,27.586,0,0,1,10.5,10.5,29.48,29.48,0,0,1,3.777,14.81c0,.882-.021,1.8-.06,2.759s-.1,1.96-.179,3h-45.22q.477,6.956,4.857,10.912a15.262,15.262,0,0,0,10.613,3.958,13.942,13.942,0,0,0,7.855-2.1,13,13,0,0,0,4.737-5.458h15.591a28.3,28.3,0,0,1-5.576,10.255,27.532,27.532,0,0,1-9.594,7.256A30.373,30.373,0,0,1,541,152.676Zm.118-49.889a16.351,16.351,0,0,0-9.953,3.178q-4.315,3.18-5.516,9.654H555.27a12.949,12.949,0,0,0-4.317-9.355,14.369,14.369,0,0,0-9.835-3.477Z" fill="currentColor" transform="translate(-70.866 -77.239)"/>
</svg>
