<svg  viewBox="0 0 75 75" fill="none" xmlns="http://www.w3.org/2000/svg">
<path d="M37.5 0L56.25 5.02405L69.976 18.75L75 37.5L69.976 56.25L56.25 69.976L37.5 75L18.75 69.976L5.02405 56.25L0 37.5L5.02405 18.75L18.75 5.02405L37.5 0Z" fill="#5F5AFF"/>
<path d="M36.3699 42.9756C36.3699 39.1289 33.1151 36.3693 28.6849 36.3693H27.4192V35.3658C27.4192 32.7735 28.9562 31.1847 31.9397 31.1847H35.1041V26H32.3014C24.526 26 21 30.2648 21 36.453V42.7247C21 47.1568 24.2548 50 28.6849 50C33.1151 50 36.3699 47.1568 36.3699 42.9756ZM54 42.9756C54 39.1289 50.8356 36.3693 46.4055 36.3693H45.0493V35.3658C45.0493 32.7735 46.5863 31.1847 49.5699 31.1847H52.7343V26H49.9315C42.2466 26 38.6301 30.2648 38.6301 36.453V42.7247C38.6301 47.1568 41.8849 50 46.3151 50C50.8356 50 54 47.1568 54 42.9756Z" fill="white"/>
</svg>
