<svg  viewBox="0 0 224 148" fill="none" xmlns="http://www.w3.org/2000/svg">
<path d="M217.208 93.5416L221.928 111L217.208 128.458L204.304 141.247L186.667 145.931L169.029 141.247L156.125 128.458L151.405 111L156.125 93.5416L169.029 80.7531L186.667 76.0693L204.304 80.7531L217.208 93.5416Z" stroke="#5F5AFF" stroke-width="4"/>
<path d="M149.333 37L149.333 111L144.332 129.5L130.667 143.043L112 148L93.3334 143.043L79.6685 129.5L74.6667 111L74.6667 37L79.6685 18.5L93.3334 4.95706L112 1.45703e-08L130.667 4.95707L144.332 18.5L149.333 37Z" fill="url(#paint0_linear)"/>
<path d="M36.3044 11.7102L62.873 38.0416L72.5948 74L62.873 109.958L36.3044 136.29L2 145.4L2.00002 2.60043L36.3044 11.7102Z" stroke="#5F5AFF" stroke-width="4"/>
<defs>
<linearGradient id="paint0_linear" x1="74.6667" y1="74" x2="147.958" y2="84.0418" gradientUnits="userSpaceOnUse">
<stop stop-color="#5F5AFF"/>
<stop offset="1" stop-color="#CCC9FF"/>
</linearGradient>
</defs>
</svg>
