<svg viewBox="0 0 747 560" fill="none" xmlns="http://www.w3.org/2000/svg">
<rect width="747" height="560" fill="var(--color-vibrant-blue)"/>
<path d="M428.724 310.514L429.375 310.339L430.026 310.514L485.25 325.411L539.825 310.689L579.784 270.462L594.413 215.5L579.784 160.538L539.825 120.311L485.25 105.589L430.026 120.486L429.375 120.662L428.724 120.486L373.5 105.589L318.276 120.486L317.625 120.662L316.974 120.486L261.75 105.589L207.175 120.311L167.216 160.538L152.587 215.5L167.216 270.462L207.175 310.689L261.75 325.411L316.974 310.514L317.625 310.339L318.276 310.514L373.5 325.411L428.724 310.514Z" stroke="var(--color-white)" stroke-width="5"/>
<path d="M428.724 375.514L429.375 375.339L430.026 375.514L485.25 390.411L539.825 375.689L579.784 335.462L594.413 280.5L579.784 225.538L539.825 185.311L485.25 170.589L430.026 185.486L429.375 185.662L428.724 185.486L373.5 170.589L318.276 185.486L317.625 185.662L316.974 185.486L261.75 170.589L207.175 185.311L167.216 225.538L152.587 280.5L167.216 335.462L207.175 375.689L261.75 390.411L316.974 375.514L317.625 375.339L318.276 375.514L373.5 390.411L428.724 375.514Z" stroke="var(--color-white)" stroke-width="5"/>
<path d="M428.724 440.514L429.375 440.339L430.026 440.514L485.25 455.411L539.825 440.689L579.784 400.462L594.413 345.5L579.784 290.538L539.825 250.311L485.25 235.589L430.026 250.486L429.375 250.662L428.724 250.486L373.5 235.589L318.276 250.486L317.625 250.662L316.974 250.486L261.75 235.589L207.175 250.311L167.216 290.538L152.587 345.5L167.216 400.462L207.175 440.689L261.75 455.411L316.974 440.514L317.625 440.339L318.276 440.514L373.5 455.411L428.724 440.514Z" stroke="var(--color-white)" stroke-width="5"/>
</svg>
