<svg xmlns="http://www.w3.org/2000/svg" viewBox="0 0 70.858 77.239">
  <path d="M98.076,50.69c21.827,0,31.494,10.764,31.494,31,0,14.95-6.278,26.213-21.328,26.213-8.571,0-14.451-3.489-21.128-12.26L75.652,80.589c-2.492-3.189-7.176-3.389-10.265,0-2.691,2.989-2.192,7.376.4,10.265l12.259,13.755c4.086,4.683,5.781,8.47,5.781,13.354,0,6.977-4.287,9.966-11.96,9.966-6.877,0-13.155-2.292-13.155-14.85V70.124c0-11.162,6.079-19.434,19.035-19.434ZM76.848,75.805l34.583,17.541c10.066,5.083,15.647-1.3,10.465-8.67L106.747,62.948c-3.588-5.082-5.381-5.581-10.764-3.388L77.546,67.135c-2.592,1.1-4.186,2.092-4.186,4.185C73.36,73.015,74.357,74.509,76.848,75.805Z" transform="translate(-58.712 -50.69)"/>
</svg>
